<?xml version="1.0" encoding="UTF-8" standalone="no"?>
<!-- Created with Inkscape (http://www.inkscape.org/) -->

<svg
   version="1.1"
   id="svg2"
   width="185.28"
   height="137.92"
   viewBox="0 0 185.28 137.92"
   sodipodi:docname="nav_raw.svg"
   inkscape:version="1.2.2 (b0a8486541, 2022-12-01)"
   xmlns:inkscape="http://www.inkscape.org/namespaces/inkscape"
   xmlns:sodipodi="http://sodipodi.sourceforge.net/DTD/sodipodi-0.dtd"
   xmlns="http://www.w3.org/2000/svg"
   xmlns:svg="http://www.w3.org/2000/svg">
  <defs
     id="defs6" />
  <sodipodi:namedview
     id="namedview4"
     pagecolor="#ffffff"
     bordercolor="#000000"
     borderopacity="0.25"
     inkscape:showpageshadow="2"
     inkscape:pageopacity="0.0"
     inkscape:pagecheckerboard="0"
     inkscape:deskcolor="#d1d1d1"
     showgrid="false"
     inkscape:zoom="0.75587298"
     inkscape:cx="78.055442"
     inkscape:cy="127.00547"
     inkscape:window-width="1920"
     inkscape:window-height="1004"
     inkscape:window-x="0"
     inkscape:window-y="40"
     inkscape:window-maximized="1"
     inkscape:current-layer="layer1" />
  <g
     inkscape:groupmode="layer"
     id="layer1"
     inkscape:label="Image 1">
    <path
       style="fill:#1a1a1a;stroke-width:1.47112"
       d="m -145.88704,350.18313 v -11.89157 h 7.3556 c 4.04559,0 7.35561,0.662 7.35561,1.47112 0,0.80912 -2.31701,1.47112 -5.14892,1.47112 -4.51144,0 -5.14893,0.45558 -5.14893,3.67781 0,3.22244 0.63749,3.67781 5.14893,3.67781 2.83191,0 5.14892,0.66199 5.14892,1.4711 0,0.80912 -2.27507,1.47113 -5.05571,1.47113 -4.60111,0 -5.09717,0.41973 -5.51671,4.66788 -0.25354,2.56727 -1.28849,4.93947 -2.29989,5.27146 -1.36925,0.44961 -1.8389,-2.4334 -1.8389,-11.28786 z m 35.47772,5.39411 c 1.63306,-3.43876 4.08322,-8.72804 5.44478,-11.75403 1.36157,-3.02598 3.31979,-5.50847 4.35162,-5.51672 1.963189,-0.0149 12.701061,21.9408 11.377509,23.26437 -0.41835,0.41835 -2.29018,-0.67636 -4.15966,-2.4326 -4.41799,-4.15049 -12.083579,-4.28562 -14.242819,-0.25101 -0.86605,1.61825 -2.51198,2.94226 -3.65763,2.94226 -1.65757,0 -1.47658,-1.27695 0.8862,-6.25227 z m 13.461249,-1.98571 c 1.1481,-1.14807 -1.94681,-7.94437 -3.617759,-7.94437 -1.54705,0 -4.05049,6.16804 -3.1347,7.72339 0.77541,1.31693 5.501839,1.47161 6.752459,0.22113 z m 30.501582,-3.53101 v -11.76896 h 6.325818 c 3.479202,0 7.120228,0.7944 8.091167,1.76534 2.159988,2.15998 2.304558,7.40484 0.26048,9.44891 -1.025766,1.02579 -0.785283,3.22716 0.755302,6.91427 1.772613,4.2425 1.849479,5.40943 0.356286,5.40943 -1.047142,0 -2.653534,-1.98603 -3.569762,-4.41338 -1.117906,-2.96169 -2.675675,-4.41336 -4.735893,-4.41336 -2.430395,0 -3.070024,0.91949 -3.070024,4.41336 0,2.94224 -0.735559,4.41338 -2.206682,4.41338 -1.777602,0 -2.206682,-2.28843 -2.206682,-11.76899 z m 12.824525,-3.87482 c 0.709761,-2.16487 -3.84261,-6.71721 -6.007453,-6.00747 -0.917484,0.30065 -1.882319,2.36505 -2.144086,4.58719 -0.427866,3.63227 -0.06795,3.99225 3.564347,3.56439 2.222162,-0.26158 4.286407,-1.22664 4.587192,-2.14411 z m 26.895746,3.99743 c 0,-14.03518 2.08908,-15.51504 8.211312,-5.81676 l 3.834864,6.07482 3.622589,-6.07482 c 5.7714562,-9.67837 7.8691752,-8.16045 7.8691752,5.69415 0,13.04817 -2.532403,16.21691 -3.233144,4.04558 l -0.444645,-7.72337 -3.9642912,5.73857 -3.964289,5.73856 -3.20591,-5.43358 c -3.781857,-6.40976 -4.92124,-5.87216 -4.994176,2.35641 -0.0308,3.49162 -0.83226,6.31723 -1.89257,6.67374 -1.370451,0.46078 -1.838902,-2.41108 -1.838902,-11.2733 z m 47.381786,0.24505 0.42966,-11.4012 6.987825,-0.44822 c 4.203187,-0.26988 6.987825,0.16998 6.987825,1.10332 0,0.85344 -2.317015,1.55172 -5.148923,1.55172 -4.511443,0 -5.148925,0.45558 -5.148925,3.67781 0,3.31894 0.582666,3.67781 5.971309,3.67781 3.606252,0 5.611195,0.58263 5.0621,1.4711 -0.500062,0.80912 -3.187156,1.47113 -5.971307,1.47113 -4.418825,0 -5.062102,0.46735 -5.062102,3.67781 0,3.31002 0.588448,3.67779 5.884485,3.67779 3.236467,0 5.884484,0.66201 5.884484,1.47112 0,0.80912 -3.668874,1.47114 -8.153041,1.47114 H 20.2259 Z m 38.249152,0 0.429659,-11.4012 6.011691,-0.44042 c 7.920223,-0.58049 10.724841,2.41039 8.295493,8.84644 -1.124686,2.97967 -1.218296,5.38398 -0.277995,7.14098 0.77966,1.45682 1.417586,3.68529 1.417586,4.95214 0,3.86029 -2.560944,2.57154 -4.192933,-2.10994 -1.03536,-2.97006 -2.525726,-4.41336 -4.55727,-4.41336 -2.373448,0 -3.018768,0.94344 -3.018768,4.41336 0,2.99576 -0.728692,4.41336 -2.268556,4.41336 -1.885832,0 -2.196076,-1.92357 -1.838902,-11.40118 z M 70.367784,345.069 c 0,-3.18443 -2.401224,-5.30632 -6.004808,-5.30632 -0.742931,0 -1.350798,1.98601 -1.350798,4.41338 0,3.72683 0.572104,4.41336 3.677804,4.41336 2.898388,0 3.677802,-0.74607 3.677802,-3.52042 z m 55.902606,4.99152 v -11.76896 h 5.85058 c 4.64241,0 6.35634,0.77192 8.29984,3.73807 3.27509,4.9984 0.94568,10.33173 -5.09172,11.65777 -2.98756,0.65616 -4.65497,2.09574 -5.27118,4.55091 -1.86628,7.43583 -3.78752,3.28759 -3.78752,-8.17779 z m 10.74207,-1.63896 c 2.03201,-3.22705 0.27814,-7.18776 -3.1829,-7.18776 -3.33033,0 -4.745,2.87029 -3.59054,7.28495 0.93251,3.56594 4.49912,3.51478 6.77344,-0.0975 z m 23.66843,9.36236 c 1.04707,-2.22508 3.46354,-7.52112 5.36985,-11.76898 1.90635,-4.24786 4.30767,-7.72338 5.33627,-7.72338 1.95812,0 12.83747,21.97681 11.52776,23.28657 -0.41422,0.41419 -2.28295,-0.68363 -4.15239,-2.43987 -4.40544,-4.13867 -12.07394,-4.27066 -14.58424,-0.25101 -2.9459,4.71722 -5.81093,3.81328 -3.49725,-1.10333 z m 14.1365,-5.3964 c 0,-3.14636 -1.62512,-6.74036 -3.04789,-6.74036 -1.84906,0 -4.59307,5.70371 -3.55336,7.38599 1.37061,2.21767 6.60125,1.70609 6.60125,-0.64563 z m 30.89355,-2.327 v -11.76896 h 6.32582 c 3.47921,0 7.12022,0.7944 8.09117,1.76534 2.15997,2.15998 2.30457,7.40484 0.26066,9.44891 -1.02577,1.02579 -0.7853,3.22716 0.75529,6.91427 1.77261,4.2425 1.84947,5.40943 0.35629,5.40943 -1.04711,0 -2.65354,-1.98603 -3.56977,-4.41338 -1.07122,-2.83792 -2.69611,-4.41336 -4.55196,-4.41336 -2.02994,0 -3.14803,1.3093 -3.76883,4.41336 -1.72523,8.626 -3.89848,4.52549 -3.89848,-7.35561 z m 10.83234,-1.87769 c 2.86376,-2.09406 2.03961,-6.211 -1.51654,-7.57564 -3.15678,-1.21133 -4.90245,0.2648 -4.90245,4.14605 0,5.43738 2.12234,6.57135 6.41899,3.42959 z m 27.66199,12.46371 c 4.06001,-9.79432 10.95686,-22.35498 12.27475,-22.35498 2.33615,0 12.91812,22.6561 10.89742,23.33151 -0.87066,0.29102 -2.56126,-0.8675 -3.75687,-2.57446 -2.79949,-3.99679 -9.85789,-4.07945 -13.77598,-0.16133 -2.90507,2.90505 -6.59091,4.05491 -5.63932,1.75929 z m 15.93717,-7.7405 c 0,-0.86231 -0.74917,-2.96762 -1.66478,-4.6785 -1.61214,-3.01229 -1.72841,-3.0236 -3.67779,-0.35766 -3.04921,4.17008 -2.43566,6.604 1.66476,6.604 2.02279,0 3.67781,-0.70554 3.67781,-1.56784 z m 30.89354,-2.84552 v -11.76896 h 6.42161 c 9.05165,0 14.1741,4.25329 14.1741,11.76896 0,7.5157 -5.12245,11.76899 -14.1741,11.76899 h -6.42161 z m 14.71121,5.88449 c 5.82798,-5.828 1.67035,-15.209 -6.39358,-14.42608 -4.09105,0.3972 -4.69615,1.03999 -5.11601,5.43513 -0.78048,8.17024 0.77021,11.93319 4.9176,11.93319 2.00733,0 4.97375,-1.32401 6.59199,-2.94224 z m 29.42241,-5.88449 c 0,-6.86521 0.61297,-11.76896 1.47114,-11.76896 0.85816,0 1.47112,4.90375 1.47112,11.76896 0,6.86522 -0.61296,11.76899 -1.47112,11.76899 -0.85817,0 -1.47114,-4.90377 -1.47114,-11.76899 z m 27.21575,10.29785 c -1.0046,-1.62545 -0.5274,-1.79068 5.8845,-2.03708 5.70874,-0.21929 5.77414,-3.58931 0.13008,-6.71737 -9.33005,-5.17113 -8.72533,-12.19577 1.12191,-13.03339 6.17314,-0.5251 7.42684,2.23017 1.33473,2.93336 -5.74672,0.66325 -5.9741,4.76849 -0.39215,7.0806 9.84902,4.07962 8.86346,13.24502 -1.42423,13.24502 -3.16024,0 -6.15503,-0.66202 -6.65514,-1.47114 z m 37.51359,-10.29785 v -11.76896 h 7.35561 c 8.53977,0 9.99339,2.54633 1.83892,3.22119 -4.38378,0.36275 -5.51672,1.06081 -5.51672,3.39886 0,2.33801 1.13294,3.03602 5.51672,3.39882 6.91922,0.57266 7.29301,3.22122 0.45467,3.22122 -5.54343,0 -7.19669,1.42524 -5.81871,5.01615 0.57654,1.50249 2.6835,2.33945 5.88927,2.33945 2.74529,0 4.99152,0.66201 4.99152,1.47112 0,0.80912 -3.31003,1.47114 -7.35563,1.47114 h -7.3556 z M 2.2782332,314.63547 c -8.340728,-1.23477 -19.0897282,-5.23558 -25.7270602,-9.57566 l -3.342649,-2.18573 4.585176,-6.66436 c 2.521852,-3.66539 5.451368,-6.9967 6.510047,-7.40297 1.058679,-0.40639 4.802564,0.73623 8.3197682,2.53884 9.435963,4.83605 25.2665778,5.59803 33.1152448,1.59393 5.629187,-2.87177 7.530055,-5.63025 10.058175,-14.59613 1.156757,-4.10241 -1.264414,-4.31871 -8.233424,-0.73555 -7.660202,3.9385 -27.7571758,3.46848 -37.3718348,-0.8741 -15.8520072,-7.15971 -24.5789322,-21.07783 -24.5878342,-39.21397 -0.0087,-17.87822 9.14774,-32.20367 25.2486482,-39.50168 9.954208,-4.51192 29.3748748,-4.38711 38.0707328,0.24459 l 6.366879,3.39124 0.808401,-3.09127 c 0.740013,-2.82989 1.694451,-3.05507 11.28657,-2.66281 l 10.47818,0.42845 0.438763,39.72023 c 0.49887,45.16134 -0.534606,53.95348 -7.47862,63.62285 -8.642561,12.03453 -28.008842,18.00417 -48.5451628,14.96401 z M 21.44641,259.53051 c 7.083949,-2.95986 10.449982,-6.12658 13.000345,-12.23045 2.876114,-6.88346 2.609226,-14.01932 -0.772253,-20.64756 -7.480195,-14.66242 -28.9855268,-17.41307 -39.8042738,-5.09117 -5.2720432,6.00456 -6.4614582,10.17965 -5.5631912,19.52806 1.579206,16.4351 17.1726782,25.11242 33.139373,18.44112 z m 371.09693,-6.56398 v -57.37371 h 11.03341 c 10.78824,0 11.0334,0.0818 11.0334,3.67779 0,2.0228 0.16554,3.66945 0.36778,3.6592 0.20236,-0.01 4.2676,-1.99627 9.03402,-4.41336 6.90487,-3.50149 10.55651,-4.39475 17.96607,-4.39475 26.07628,0 43.24783,18.27661 43.24481,46.02776 -10e-4,18.63877 -10.82115,35.32143 -26.88543,41.45641 -10.49181,4.00687 -28.06688,2.77595 -36.07989,-2.52693 -3.36222,-2.22505 -6.45836,-4.04558 -6.88025,-4.04558 -0.42204,0 -0.76711,7.94405 -0.76711,17.65345 v 17.65345 h -11.0334 -11.03341 z m 54.71574,10.03889 c 19.90694,-5.96423 20.73684,-38.71902 1.18623,-46.81719 -6.13376,-2.54066 -19.73001,-1.20425 -24.70164,2.428 -13.89287,10.14995 -12.07667,35.5577 3.07796,43.05912 7.02823,3.47896 12.15219,3.81242 20.43745,1.33007 z m -176.098,20.89019 c -16.15682,-2.40976 -32.24748,-15.22066 -36.01397,-28.6733 -2.43833,-8.70885 -1.34502,-30.90283 1.81855,-36.91652 3.74362,-7.11632 11.35382,-13.69041 21.70564,-18.75041 8.30486,-4.05944 11.10987,-4.67565 21.33126,-4.68608 9.93287,-0.008 13.08054,0.632 20.1756,4.11613 16.14888,7.93014 25.41033,23.49801 24.40563,41.02426 l -0.44778,7.80793 -33.83578,0.73555 c -36.50666,0.79364 -35.83357,0.61008 -30.79741,8.40071 2.28773,3.53901 14.31405,7.78164 22.05804,7.78164 5.57781,0 14.09144,-3.31965 16.76001,-6.53505 1.04605,-1.26042 2.88179,-2.29168 4.07942,-2.29168 3.41844,0 16.58362,7.88478 16.58529,9.93313 10e-4,2.4937 -16.51058,14.49842 -22.44551,16.31796 -7.38917,2.26538 -17.28857,2.94242 -25.37919,1.73573 z m 28.70162,-53.87222 c 0,-4.19127 -4.90628,-10.79132 -9.71998,-13.07554 -12.3546,-5.86266 -32.94254,2.14194 -32.94254,12.80813 0,2.38555 1.87082,2.61488 21.33126,2.61488 18.54901,0 21.33126,-0.30619 21.33126,-2.34747 z m -492.09006,49.70639 c -10.7457,-5.24643 -14.08455,-8.72729 -19.32565,-20.1475 -5.70074,-12.42176 -5.6811,-28.47867 0.0504,-41.17224 5.15454,-11.41586 8.53263,-14.93277 19.27529,-20.06725 12.52361,-5.98568 24.90727,-5.92748 36.9385,0.17384 4.76645,2.41709 8.78572,4.40309 8.93172,4.41336 0.14611,0.01 0.47701,-1.47091 0.73556,-3.29142 0.43081,-3.0333 1.35217,-3.34595 11.0221,-3.73996 l 10.55202,-0.42984 0.81916,7.78554 c 0.67598,6.4248 0.40732,60.42341 -0.37394,75.15379 l -0.218,4.11001 -10.66563,-0.43212 c -9.78894,-0.39675 -10.70429,-0.70448 -11.13597,-3.74412 l -0.47035,-3.31192 -6.74976,3.95558 c -5.46576,3.20316 -9.01433,4.0601 -18.65423,4.50487 -10.78022,0.49743 -12.73806,0.14198 -20.7312,-3.76026 z m 34.62741,-18.30429 c 11.89643,-5.99901 16.35717,-20.865 10.19467,-33.97519 -7.64763,-16.26962 -33.2114,-17.51755 -42.62335,-2.0807 -3.51718,5.76864 -3.98937,19.83076 -0.86738,25.83113 6.41161,12.3229 20.53473,16.65994 33.29606,10.22476 z m 59.454299,19.10472 c -0.39233,-1.0223 -0.53702,-20.38594 -0.32163,-43.03029 l 0.39169,-41.17155 10.665632,-0.43212 10.66563,-0.43216 v 4.39096 c 0,5.78238 2.40724,7.04888 6.36117,3.34678 4.03251,-3.77574 16.286298,-9.07995 20.976539,-9.07995 3.443487,0 3.555835,0.34756 3.555835,11.00536 0,12.15989 0.893753,11.16549 -11.863003,13.19869 -5.413873,0.86284 -12.556051,7.06739 -16.167791,14.04511 -1.21857,2.35428 -2.14602,12.0161 -2.57718,26.84794 l -0.67353,23.17016 h -10.15004 c -6.820762,0 -10.383992,-0.60967 -10.863312,-1.85875 z m 182.734277,0.87803 c -0.539414,-0.53945 -0.980752,-19.66674 -0.980752,-42.50511 0,-31.9105 0.425752,-41.66692 1.838904,-42.13989 1.465309,-0.49044 9.799185,-0.39492 20.595692,0.2363 0.60684,0.0369 1.10334,19.26261 1.10334,42.72705 v 42.66245 H 96.357596 c -5.93353,0 -11.229565,-0.44135 -11.76897,-0.9807 z m 47.566254,-58.59968 v -59.5804 h 11.0334 11.03342 v 19.12457 c 0,10.51852 0.5963,19.12457 1.32505,19.12457 0.72879,0 4.8663,-1.64853 9.19448,-3.66341 9.78447,-4.55491 20.04955,-4.77507 29.20075,-0.62634 9.74439,4.4177 13.00833,8.21897 16.26585,18.94364 2.55782,8.42102 2.87573,13.15283 2.52471,37.57823 l -0.40179,27.94398 -11.40118,0.42986 -11.40118,0.42985 v -27.91737 c 0,-15.3546 -0.6455,-29.61522 -1.43444,-31.69035 -1.81744,-4.78018 -9.69791,-9.64608 -15.63369,-9.65323 -6.34952,-0.01 -14.20375,5.67931 -16.31683,11.81446 -1.08832,3.15973 -1.78743,15.02565 -1.83893,31.21034 l -0.0831,26.11238 h -11.03345 -11.03341 z m 214.35165,58.65798 c -0.5715,-0.5715 -1.03908,-27.43673 -1.03908,-59.70058 v -58.66157 l 11.40122,0.42984 11.40118,0.42985 v 58.84484 58.84486 l -10.36214,0.42616 c -5.69915,0.23447 -10.8297,-0.0415 -11.40118,-0.61299 z M 87.484074,182.24593 c -3.011988,-2.36918 -3.8762,-4.33714 -3.8762,-8.82673 0,-7.37092 4.01562,-11.66216 10.913087,-11.66216 7.098379,0 9.473299,1.21242 12.019499,6.13627 6.01561,11.63289 -8.558917,22.60993 -19.056386,14.35262 z M 24.918935,116.79327 c -5.000118,-4.20732 -7.582618,-11.37483 -6.374841,-17.692866 0.471803,-2.46807 4.014356,-7.242713 8.657669,-11.668803 4.322507,-4.120271 7.85911,-7.949761 7.85911,-8.509948 0,-0.56019 -1.916282,-1.018531 -4.258393,-1.018531 -2.342132,0 -8.48262,-1.304723 -13.645533,-2.899389 C 7.8209188,72.12013 0.7630352,66.60479 -3.0117578,59.243039 c -6.077129,-11.851882 3.719129,-47.54161 20.1155648,-73.284996 15.187402,-23.845105 26.607895,-33.28736 40.411392,-33.411397 8.660477,-0.07784 19.116852,4.275326 20.915518,8.707452 4.144564,10.21262 3.510993,22.759799 -1.479063,29.2916241 -2.788244,3.649705 -4.452348,1.211039 -5.726146,-8.3913511 -0.588628,-4.437208 -2.356517,-8.785213 -4.708678,-11.580591 -4.98014,-5.918555 -14.424138,-6.33606 -20.708298,-0.915466 -3.871443,3.339432 -4.11418,4.229608 -3.91109,14.343433 0.162698,8.1020061 1.372979,13.8920631 4.867867,23.2875538 2.558246,6.8774922 5.621562,13.9955262 6.807372,15.8178492 1.899838,2.919589 1.889529,3.828696 -0.08679,7.650334 -3.681288,7.118842 -3.020358,8.715919 3.273953,7.911214 5.222407,-0.667667 6.1053,-0.125176 16.550115,10.167817 6.068374,5.980213 14.839936,13.303408 19.492357,16.273782 4.652417,2.970368 8.426074,5.905404 8.385934,6.52229 -0.0944,1.450876 -55.178329,46.408593 -58.476056,47.726303 -5.757408,2.30057 -13.303242,1.21253 -17.793325,-2.56562 z m 159.247745,-1.88981 c 3.53372,-3.68841 12.74746,-8.68908 20.44093,-11.09413 1.41594,-0.44267 2.57444,-2.1323 2.57444,-3.7548 0,-1.622486 1.40089,-8.270084 3.11307,-14.772438 2.69885,-10.249173 2.88009,-12.747782 1.36229,-18.775674 -2.3128,-9.185005 -3.92923,-11.065906 -7.75177,-9.020132 -7.07608,3.786986 -22.34233,-4.729336 -27.47165,-15.325132 -1.69825,-3.508107 -3.08772,-7.177159 -3.08772,-8.153449 0,-0.976296 -2.81352,-4.842671 -6.25225,-8.591955 l -6.25227,-6.816863 10.52817,0.962743 c 21.29258,1.947102 35.22999,10.717694 36.90614,23.224429 l 0.86182,6.430198 -8.45205,-7.723387 c -11.73059,-10.719237 -14.87879,-9.73844 -3.9193,1.221031 4.91942,4.919429 8.94441,9.592535 8.94441,10.384673 0,0.792142 0.67769,1.021431 1.50593,0.509542 0.83571,-0.516529 2.88471,2.227289 4.60415,6.165436 4.01836,9.203735 3.91824,9.136017 7.19791,4.867499 1.54492,-2.010695 2.82364,-3.103064 2.84161,-2.42745 0.0182,0.675596 3.16586,-1.529526 6.99523,-4.900264 3.82938,-3.370736 8.7944,-7.210756 11.03342,-8.533368 2.239,-1.322631 4.0709,-2.907643 4.0709,-3.522293 0,-1.904675 -7.6113,1.659586 -15.22573,7.130024 l -7.2694,5.222568 0.91167,-4.55849 c 1.4434,-7.217086 5.07494,-11.500973 13.16879,-15.534291 6.41017,-3.194346 9.50686,-3.748003 20.96288,-3.748003 7.39289,0 13.87011,0.428511 14.39382,0.952229 0.52373,0.523719 -1.40677,2.711158 -4.29002,4.860952 -2.88326,2.14979 -7.00792,7.158063 -9.16601,11.129487 -5.11112,9.405968 -13.93153,15.613995 -23.48925,16.532374 -4.48399,0.430853 -7.65613,0.07017 -8.28145,-0.941577 -3.42974,-5.549469 -9.31757,4.321037 -13.32667,22.341197 -2.79135,12.546424 -2.34478,15.739154 2.20136,15.739154 4.44196,0 13.3137,4.9313 18.28406,10.16312 l 4.32083,4.5481 H 208.65319 180.15141 Z M 167.4618,92.495515 c -6.06839,-1.658576 -11.50824,-3.480293 -12.0886,-4.048266 -0.58036,-0.567968 -1.60299,-3.669236 -2.27253,-6.891729 -0.91805,-4.418558 -1.92455,-5.859081 -4.09375,-5.859081 -3.93758,0 -6.24656,-2.329741 -5.42451,-5.47326 0.79771,-3.050475 3.61443,-3.355027 7.66039,-0.828274 2.39468,1.495501 3.59054,1.253722 7.27611,-1.471121 5.92248,-4.378718 8.09318,-4.153664 19.77695,2.050463 13.84156,7.349887 19.05957,16.152722 12.88633,21.739406 -4.24676,3.843251 -11.62917,4.086591 -23.72039,0.781862 z M 118.87234,74.311305 C 79.537136,59.813552 48.982021,22.895559 45.872483,-13.890224 c -0.87682,-10.372762 -0.789569,-10.754632 3.168485,-13.868053 7.373439,-5.79994 15.760888,-2.62557 17.679393,6.691069 0.462432,2.245652 2.174523,8.96385 3.804626,14.9293191 7.321215,26.7924139 26.509312,47.3924509 54.599713,58.6174599 12.1902,4.871223 14.38579,6.977295 14.38579,13.799163 0,9.314608 -8.34617,12.563023 -20.63815,8.032571 z M 107.51359,38.705844 c -7.29634,-4.951205 -10.472807,-9.248437 -5.39638,-7.300439 1.27985,0.491135 3.31679,0.892958 4.52652,0.892958 2.52151,0 10.79993,7.806827 10.79993,10.184692 0,2.47404 -1.63365,1.852623 -9.93007,-3.777211 z m -8.627987,-76.868837 c -11.810708,-3.017335 -22.664109,-17.888262 -22.601028,-30.967072 0.09048,-18.769894 17.076125,-34.137615 35.340645,-31.974455 19.04578,2.255691 31.77945,19.084285 28.61466,37.816595 -1.37814,8.15706 -9.09175,19.004616 -16.04352,22.561788 -6.27934,3.213094 -18.08647,4.408772 -25.310757,2.563144 z"
       id="path293"
       inkscape:export-filename="nav.png"
       inkscape:export-xdpi="120"
       inkscape:export-ydpi="120" />
  </g>
</svg>
