<svg width="24" height="24" viewBox="0 0 24 24" fill="none" xmlns="http://www.w3.org/2000/svg">
<path d="M17.7499 4.08998L15.2199 6.02998L16.1299 9.08998L13.4999 7.27998L10.8699 9.08998L11.7799 6.02998L9.24995 4.08998L12.4399 3.99998L13.4999 0.999977L14.5599 3.99998L17.7499 4.08998ZM21.2499 11L19.6099 12.25L20.1999 14.23L18.4999 13.06L16.7999 14.23L17.3899 12.25L15.7499 11L17.8099 10.95L18.4999 8.99998L19.1899 10.95L21.2499 11ZM18.9699 15.95C19.7999 15.87 20.6899 17.05 20.1599 17.8C19.8399 18.25 19.4999 18.67 19.0799 19.07C15.1699 23 8.83995 23 4.93995 19.07C1.02995 15.17 1.02995 8.82998 4.93995 4.92998C5.33995 4.52998 5.75995 4.16998 6.20995 3.84998C6.95995 3.31998 8.13995 4.20998 8.05995 5.03998C7.78995 7.89998 8.74995 10.87 10.9499 13.06C13.1399 15.26 16.0999 16.22 18.9699 15.95Z" fill="white"/>
</svg>
