<svg width="24" height="24" viewBox="0 0 24 24" fill="none" xmlns="http://www.w3.org/2000/svg">
<path d="M5.00352 14.1695C4.78883 14.245 4.58533 14.3444 4.39616 14.4643C3.5541 14.1159 2.76537 13.5975 2.0818 12.9093C-0.693935 10.1429 -0.693935 5.64576 2.0818 2.87938C2.36577 2.59565 2.66393 2.34029 2.98339 2.11331C3.51582 1.73737 4.35351 2.36867 4.29672 2.95741C4.10504 4.98608 4.78655 7.09278 6.34835 8.64621C6.94443 9.24452 7.62087 9.71354 8.34325 10.0537C6.44656 10.3669 5 12.0145 5 14C5 14.0568 5.00118 14.1133 5.00352 14.1695Z" fill="white"/>
<path d="M10.5332 5.4617L11.06 7.20828C11.0081 7.24998 10.9569 7.2926 10.9065 7.33612L9.37123 6.29434L7.59443 7.5L8.20922 5.4617L6.49998 4.16944L8.65511 4.10949L9.37123 2.11116L10.0874 4.10949L12.2425 4.16944L10.5332 5.4617Z" fill="white"/>
<path d="M16.6077 4.27602L17.7157 3.44339L16.324 3.41008L15.8578 2.11116L15.3917 3.41008L14 3.44339L15.1079 4.27602L14.7093 5.59493L15.8578 4.81558L17.0063 5.59493L16.6077 4.27602Z" fill="white"/>
<path d="M7 21H20C22.2091 21 24 19.2091 24 17C24 15.1238 22.7083 13.5494 20.9657 13.1174C20.9884 12.9147 21 12.7087 21 12.5C21 9.46243 18.5376 7 15.5 7C12.9806 7 10.8568 8.69403 10.2056 11.0052C10.1375 11.0017 10.0689 11 10 11C7.79086 11 6 12.7909 6 15C6 15.0568 6.00118 15.1133 6.00352 15.1695C4.83649 15.5803 4 16.6925 4 18C4 19.6569 5.34314 21 7 21Z" fill="white"/>
</svg>
