<svg width="24" height="24" viewBox="0 0 24 24" fill="none" xmlns="http://www.w3.org/2000/svg">
<g clip-path="url(#clip0_3_9396)">
<path d="M4.39616 12.4643C4.58533 12.3444 4.78883 12.245 5.00352 12.1695C5.00118 12.1133 5 12.0568 5 12C5 10.0145 6.44656 8.36695 8.34325 8.05366C7.62087 7.71354 6.94443 7.24452 6.34835 6.64621C4.78655 5.09278 4.10504 2.98608 4.29672 0.957407C4.35351 0.368666 3.51582 -0.262634 2.98339 0.113309C2.66393 0.340293 2.36577 0.595651 2.0818 0.879381C-0.693935 3.64576 -0.693935 8.14289 2.0818 10.9093C2.76537 11.5975 3.5541 12.1159 4.39616 12.4643Z" fill="white"/>
<path d="M11.06 5.20828L10.5332 3.4617L12.2425 2.16944L10.0874 2.10949L9.37123 0.111157L8.65511 2.10949L6.49998 2.16944L8.20922 3.4617L7.59443 5.5L9.37123 4.29434L10.9065 5.33612C10.9569 5.2926 11.0081 5.24998 11.06 5.20828Z" fill="white"/>
<path d="M16.6077 2.27602L17.7157 1.44339L16.324 1.41008L15.8578 0.111162L15.3917 1.41008L14 1.44339L15.1079 2.27602L14.7093 3.59493L15.8578 2.81558L17.0063 3.59493L16.6077 2.27602Z" fill="white"/>
<path d="M20 19H7C5.34315 19 4 17.6569 4 16C4 14.6925 4.83649 13.5803 6.00352 13.1695C6.00118 13.1133 6 13.0568 6 13C6 10.7909 7.79086 9 10 9C10.0689 9 10.1375 9.00175 10.2056 9.00519C10.8568 6.69403 12.9806 5 15.5 5C18.5376 5 21 7.46243 21 10.5C21 10.7087 20.9884 10.9147 20.9657 11.1174C22.7083 11.5494 24 13.1238 24 15C24 17.2091 22.2091 19 20 19Z" fill="white"/>
<path d="M11.191 20H9.809C9.4373 20 9.19556 20.3912 9.36178 20.7236L10.5 23L11.6382 20.7236C11.8044 20.3912 11.5627 20 11.191 20Z" fill="white"/>
<path d="M12.2081 22.3757L12.8919 20.3243C12.9564 20.1306 13.1377 20 13.3419 20C13.6656 20 13.8942 20.3172 13.7919 20.6243L13.1081 22.6757C13.0435 22.8694 12.8623 23 12.6581 23C12.3343 23 12.1057 22.6828 12.2081 22.3757Z" fill="white"/>
<path d="M14.2081 22.3757L14.8919 20.3243C14.9564 20.1306 15.1377 20 15.3419 20C15.6656 20 15.8942 20.3172 15.7919 20.6243L15.1081 22.6757C15.0435 22.8694 14.8623 23 14.6581 23C14.3343 23 14.1057 22.6828 14.2081 22.3757Z" fill="white"/>
<path d="M16.8919 20.3243L16.2081 22.3757C16.1057 22.6828 16.3343 23 16.6581 23C16.8623 23 17.0435 22.8694 17.1081 22.6757L17.7919 20.6243C17.8942 20.3172 17.6656 20 17.3419 20C17.1377 20 16.9564 20.1306 16.8919 20.3243Z" fill="white"/>
</g>
<defs>
<clipPath id="clip0_3_9396">
<rect width="24" height="24" fill="white"/>
</clipPath>
</defs>
</svg>
