<svg width="24" height="24" viewBox="0 0 24 24" fill="none" xmlns="http://www.w3.org/2000/svg">
<g clip-path="url(#clip0_3_9391)">
<path d="M4.39616 12.4643C4.58533 12.3444 4.78883 12.245 5.00352 12.1695C5.00118 12.1133 5 12.0568 5 12C5 10.0145 6.44656 8.36695 8.34325 8.05366C7.62087 7.71354 6.94443 7.24452 6.34835 6.64621C4.78655 5.09278 4.10504 2.98608 4.29672 0.957407C4.35351 0.368666 3.51582 -0.262634 2.98339 0.113309C2.66393 0.340293 2.36577 0.595651 2.0818 0.879381C-0.693935 3.64576 -0.693935 8.14289 2.0818 10.9093C2.76537 11.5975 3.5541 12.1159 4.39616 12.4643Z" fill="white"/>
<path d="M11.06 5.20828L10.5332 3.4617L12.2425 2.16944L10.0874 2.10949L9.37123 0.111157L8.65511 2.10949L6.49998 2.16944L8.20922 3.4617L7.59443 5.5L9.37123 4.29434L10.9065 5.33612C10.9569 5.2926 11.0081 5.24998 11.06 5.20828Z" fill="white"/>
<path d="M17.7157 1.44339L16.6077 2.27602L17.0063 3.59493L15.8578 2.81558L14.7093 3.59493L15.1079 2.27602L14 1.44339L15.3917 1.41008L15.8578 0.111162L16.324 1.41008L17.7157 1.44339Z" fill="white"/>
<path d="M20 19H7C5.34315 19 4 17.6569 4 16C4 14.6925 4.83649 13.5803 6.00352 13.1695C6.00118 13.1133 6 13.0568 6 13C6 10.7909 7.79086 9 10 9C10.0689 9 10.1375 9.00175 10.2056 9.00519C10.8568 6.69403 12.9806 5 15.5 5C18.5376 5 21 7.46243 21 10.5C21 10.7087 20.9884 10.9147 20.9657 11.1174C22.7083 11.5494 24 13.1238 24 15C24 17.2091 22.2091 19 20 19Z" fill="white"/>
<path d="M7.41459 20C7.1605 20 6.92822 20.1436 6.81459 20.3708L5.48541 23.0292C5.2624 23.4752 5.58673 24 6.08541 24C6.3395 24 6.57178 23.8564 6.68541 23.6292L8.01459 20.9708C8.2376 20.5248 7.91327 20 7.41459 20Z" fill="white"/>
<path d="M10.4146 20C10.1605 20 9.92822 20.1436 9.81459 20.3708L8.48541 23.0292C8.26239 23.4752 8.58673 24 9.08541 24C9.3395 24 9.57178 23.8564 9.68541 23.6292L11.0146 20.9708C11.2376 20.5248 10.9133 20 10.4146 20Z" fill="white"/>
<path d="M16.4146 20C16.9133 20 17.2376 20.5248 17.0146 20.9708L15.6854 23.6292C15.5718 23.8564 15.3395 24 15.0854 24C14.5867 24 14.2624 23.4752 14.4854 23.0292L15.8146 20.3708C15.9282 20.1436 16.1605 20 16.4146 20Z" fill="white"/>
<path d="M19.4146 20C19.1605 20 18.9282 20.1436 18.8146 20.3708L17.4854 23.0292C17.2624 23.4752 17.5867 24 18.0854 24C18.3395 24 18.5718 23.8564 18.6854 23.6292L20.0146 20.9708C20.2376 20.5248 19.9133 20 19.4146 20Z" fill="white"/>
<path d="M13.4146 20C13.9133 20 14.2376 20.5248 14.0146 20.9708L12.6854 23.6292C12.5718 23.8564 12.3395 24 12.0854 24C11.5867 24 11.2624 23.4752 11.4854 23.0292L12.8146 20.3708C12.9282 20.1436 13.1605 20 13.4146 20Z" fill="white"/>
</g>
<defs>
<clipPath id="clip0_3_9391">
<rect width="24" height="24" fill="white"/>
</clipPath>
</defs>
</svg>
