<svg width="24" height="24" viewBox="0 0 24 24" fill="none" xmlns="http://www.w3.org/2000/svg">
<g clip-path="url(#clip0_3_9377)">
<path d="M5.00352 12.1695C4.78883 12.245 4.58533 12.3444 4.39616 12.4643C3.5541 12.1159 2.76537 11.5975 2.0818 10.9093C-0.693935 8.14289 -0.693935 3.64576 2.0818 0.879381C2.36577 0.595651 2.66393 0.340293 2.98339 0.113309C3.51582 -0.262634 4.35351 0.368666 4.29672 0.957407C4.10504 2.98608 4.78655 5.09278 6.34835 6.64621C6.94443 7.24452 7.62087 7.71354 8.34325 8.05366C6.44656 8.36695 5 10.0145 5 12C5 12.0568 5.00118 12.1133 5.00352 12.1695Z" fill="white"/>
<path d="M10.5332 3.4617L11.06 5.20828C11.0081 5.24998 10.9569 5.2926 10.9065 5.33612L9.37123 4.29434L7.59443 5.5L8.20922 3.4617L6.49998 2.16944L8.65511 2.10949L9.37123 0.111157L10.0874 2.10949L12.2425 2.16944L10.5332 3.4617Z" fill="white"/>
<path d="M16.6077 2.27602L17.7157 1.44339L16.324 1.41008L15.8578 0.111162L15.3917 1.41008L14 1.44339L15.1079 2.27602L14.7093 3.59493L15.8578 2.81558L17.0063 3.59493L16.6077 2.27602Z" fill="white"/>
<path d="M7 19H20C22.2091 19 24 17.2091 24 15C24 13.1238 22.7083 11.5494 20.9657 11.1174C20.9884 10.9147 21 10.7087 21 10.5C21 7.46243 18.5376 5 15.5 5C12.9806 5 10.8568 6.69403 10.2056 9.00519C10.1375 9.00175 10.0689 9 10 9C7.79086 9 6 10.7909 6 13C6 13.0568 6.00118 13.1133 6.00352 13.1695C4.83649 13.5803 4 14.6925 4 16C4 17.6569 5.34315 19 7 19Z" fill="white"/>
<path d="M10.4483 24H11.5517L11.4414 22.7778L12.4483 23.4861L13 22.5139L11.8966 22L13 21.4861L12.4483 20.5139L11.4414 21.2222L11.5517 20H10.4483L10.5586 21.2222L9.55172 20.5139L9 21.4861L10.1034 22L9 22.5139L9.55172 23.4861L10.5586 22.7778L10.4483 24Z" fill="white"/>
<path d="M17.5517 24H16.4483L16.5586 22.7778L15.5517 23.4861L15 22.5139L16.1034 22L15 21.4861L15.5517 20.5139L16.5586 21.2222L16.4483 20H17.5517L17.4414 21.2222L18.4483 20.5139L19 21.4861L17.8966 22L19 22.5139L18.4483 23.4861L17.4414 22.7778L17.5517 24Z" fill="white"/>
</g>
<defs>
<clipPath id="clip0_3_9377">
<rect width="24" height="24" fill="white"/>
</clipPath>
</defs>
</svg>
